<?xml version="1.0" encoding="UTF-8"?>
<!--Generator: Apple Native CoreSVG 149-->
<!DOCTYPE svg
PUBLIC "-//W3C//DTD SVG 1.1//EN"
       "http://www.w3.org/Graphics/SVG/1.1/DTD/svg11.dtd">
<svg version="1.1" xmlns="http://www.w3.org/2000/svg" xmlns:xlink="http://www.w3.org/1999/xlink" width="3300" height="2200">
 <!--glyph: "uni1008CC.medium", point size: 100.000000, font version: "Version 16.0d18e1", template writer version: "8"-->
 <g id="Notes">
  <rect height="2200" id="artboard" style="fill:white;opacity:1" width="3300" x="0" y="0"/>
  <line id="" style="fill:none;stroke:black;opacity:1;stroke-width:0.5;" x1="263" x2="3036" y1="292" y2="292"/>
  <text style="stroke:none;fill:black;font-family:-apple-system,&quot;SF Pro Display&quot;,&quot;SF Pro Text&quot;,Helvetica,sans-serif;font-weight:bold;" transform="matrix(1 0 0 1 263 322)">Weight/Scale Variations</text>
  <text style="stroke:none;fill:black;font-family:-apple-system,&quot;SF Pro Display&quot;,&quot;SF Pro Text&quot;,Helvetica,sans-serif;text-anchor:middle;" transform="matrix(1 0 0 1 559.711 322)">Ultralight</text>
  <text style="stroke:none;fill:black;font-family:-apple-system,&quot;SF Pro Display&quot;,&quot;SF Pro Text&quot;,Helvetica,sans-serif;text-anchor:middle;" transform="matrix(1 0 0 1 856.422 322)">Thin</text>
  <text style="stroke:none;fill:black;font-family:-apple-system,&quot;SF Pro Display&quot;,&quot;SF Pro Text&quot;,Helvetica,sans-serif;text-anchor:middle;" transform="matrix(1 0 0 1 1153.13 322)">Light</text>
  <text style="stroke:none;fill:black;font-family:-apple-system,&quot;SF Pro Display&quot;,&quot;SF Pro Text&quot;,Helvetica,sans-serif;text-anchor:middle;" transform="matrix(1 0 0 1 1449.84 322)">Regular</text>
  <text style="stroke:none;fill:black;font-family:-apple-system,&quot;SF Pro Display&quot;,&quot;SF Pro Text&quot;,Helvetica,sans-serif;text-anchor:middle;" transform="matrix(1 0 0 1 1746.56 322)">Medium</text>
  <text style="stroke:none;fill:black;font-family:-apple-system,&quot;SF Pro Display&quot;,&quot;SF Pro Text&quot;,Helvetica,sans-serif;text-anchor:middle;" transform="matrix(1 0 0 1 2043.27 322)">Semibold</text>
  <text style="stroke:none;fill:black;font-family:-apple-system,&quot;SF Pro Display&quot;,&quot;SF Pro Text&quot;,Helvetica,sans-serif;text-anchor:middle;" transform="matrix(1 0 0 1 2339.98 322)">Bold</text>
  <text style="stroke:none;fill:black;font-family:-apple-system,&quot;SF Pro Display&quot;,&quot;SF Pro Text&quot;,Helvetica,sans-serif;text-anchor:middle;" transform="matrix(1 0 0 1 2636.69 322)">Heavy</text>
  <text style="stroke:none;fill:black;font-family:-apple-system,&quot;SF Pro Display&quot;,&quot;SF Pro Text&quot;,Helvetica,sans-serif;text-anchor:middle;" transform="matrix(1 0 0 1 2933.4 322)">Black</text>
  <line id="" style="fill:none;stroke:black;opacity:1;stroke-width:0.5;" x1="263" x2="3036" y1="1903" y2="1903"/>
  <g id="" transform="matrix(1 0 0 1 263 1933)">
   <path d="M9.24805 0.830078C13.5547 0.830078 17.1387-2.74414 17.1387-7.05078C17.1387-11.3574 13.5449-14.9316 9.23828-14.9316C4.94141-14.9316 1.36719-11.3574 1.36719-7.05078C1.36719-2.74414 4.95117 0.830078 9.24805 0.830078ZM9.24805-0.654297C5.70312-0.654297 2.87109-3.49609 2.87109-7.05078C2.87109-10.6055 5.69336-13.4473 9.23828-13.4473C12.793-13.4473 15.6348-10.6055 15.6445-7.05078C15.6543-3.49609 12.8027-0.654297 9.24805-0.654297ZM6.39648-6.31836L8.50586-6.31836L8.50586-4.19922C8.50586-3.75977 8.79883-3.45703 9.22852-3.45703C9.67773-3.45703 9.9707-3.75977 9.9707-4.19922L9.9707-6.31836L12.0996-6.31836C12.5391-6.31836 12.8418-6.61133 12.8418-7.04102C12.8418-7.48047 12.5391-7.7832 12.0996-7.7832L9.9707-7.7832L9.9707-9.89258C9.9707-10.3418 9.67773-10.6445 9.22852-10.6445C8.79883-10.6445 8.50586-10.3418 8.50586-9.89258L8.50586-7.7832L6.39648-7.7832C5.94727-7.7832 5.64453-7.48047 5.64453-7.04102C5.64453-6.61133 5.94727-6.31836 6.39648-6.31836Z"/>
  </g>
  <g id="" transform="matrix(1 0 0 1 281.506 1933)">
   <path d="M11.709 2.91016C17.1582 2.91016 21.6699-1.61133 21.6699-7.05078C21.6699-12.5 17.1484-17.0117 11.6992-17.0117C6.25977-17.0117 1.74805-12.5 1.74805-7.05078C1.74805-1.61133 6.26953 2.91016 11.709 2.91016ZM11.709 1.25C7.09961 1.25 3.41797-2.44141 3.41797-7.05078C3.41797-11.6602 7.08984-15.3516 11.6992-15.3516C16.3086-15.3516 20-11.6602 20.0098-7.05078C20.0195-2.44141 16.3184 1.25 11.709 1.25ZM7.98828-6.23047L10.8789-6.23047L10.8789-3.32031C10.8789-2.83203 11.2109-2.5 11.6895-2.5C12.1777-2.5 12.5195-2.83203 12.5195-3.32031L12.5195-6.23047L15.4297-6.23047C15.918-6.23047 16.25-6.5625 16.25-7.04102C16.25-7.5293 15.918-7.87109 15.4297-7.87109L12.5195-7.87109L12.5195-10.7617C12.5195-11.2695 12.1777-11.6016 11.6895-11.6016C11.2109-11.6016 10.8789-11.2598 10.8789-10.7617L10.8789-7.87109L7.98828-7.87109C7.48047-7.87109 7.14844-7.5293 7.14844-7.04102C7.14844-6.5625 7.49023-6.23047 7.98828-6.23047Z"/>
  </g>
  <g id="" transform="matrix(1 0 0 1 304.924 1933)">
   <path d="M14.9707 5.66406C21.9336 5.66406 27.6953-0.0976562 27.6953-7.05078C27.6953-14.0137 21.9238-19.7754 14.9609-19.7754C8.00781-19.7754 2.25586-14.0137 2.25586-7.05078C2.25586-0.0976562 8.01758 5.66406 14.9707 5.66406ZM14.9707 3.84766C8.93555 3.84766 4.08203-1.01562 4.08203-7.05078C4.08203-13.0957 8.92578-17.9492 14.9609-17.9492C21.0059-17.9492 25.8594-13.0957 25.8691-7.05078C25.8789-1.01562 21.0156 3.84766 14.9707 3.84766ZM10.0586-6.14258L14.0625-6.14258L14.0625-2.12891C14.0625-1.5918 14.4336-1.2207 14.9512-1.2207C15.4883-1.2207 15.8594-1.5918 15.8594-2.12891L15.8594-6.14258L19.8828-6.14258C20.4102-6.14258 20.791-6.51367 20.791-7.03125C20.791-7.56836 20.4199-7.94922 19.8828-7.94922L15.8594-7.94922L15.8594-11.9531C15.8594-12.5098 15.4883-12.8809 14.9512-12.8809C14.4336-12.8809 14.0625-12.5 14.0625-11.9531L14.0625-7.94922L10.0586-7.94922C9.50195-7.94922 9.13086-7.56836 9.13086-7.03125C9.13086-6.51367 9.51172-6.14258 10.0586-6.14258Z"/>
  </g>
  <text style="stroke:none;fill:black;font-family:-apple-system,&quot;SF Pro Display&quot;,&quot;SF Pro Text&quot;,Helvetica,sans-serif;font-weight:bold;" transform="matrix(1 0 0 1 263 1953)">Design Variations</text>
  <text style="stroke:none;fill:black;font-family:-apple-system,&quot;SF Pro Display&quot;,&quot;SF Pro Text&quot;,Helvetica,sans-serif;" transform="matrix(1 0 0 1 263 1971)">Symbols are supported in up to nine weights and three scales.</text>
  <text style="stroke:none;fill:black;font-family:-apple-system,&quot;SF Pro Display&quot;,&quot;SF Pro Text&quot;,Helvetica,sans-serif;" transform="matrix(1 0 0 1 263 1989)">For optimal layout with text and other symbols, vertically align</text>
  <text style="stroke:none;fill:black;font-family:-apple-system,&quot;SF Pro Display&quot;,&quot;SF Pro Text&quot;,Helvetica,sans-serif;" transform="matrix(1 0 0 1 263 2007)">symbols with the adjacent text.</text>
  <line id="" style="fill:none;stroke:#00AEEF;stroke-width:0.5;opacity:1.0;" x1="776" x2="776" y1="1919" y2="1933"/>
  <g id="" transform="matrix(1 0 0 1 776 1933)">
   <path d="M3.31055 0.126953C3.82812 0.126953 4.08203-0.0683594 4.26758-0.605469L5.52734-4.0625L11.2891-4.0625L12.5488-0.605469C12.7344-0.0683594 12.9883 0.126953 13.4961 0.126953C14.0137 0.126953 14.3457-0.185547 14.3457-0.673828C14.3457-0.839844 14.3164-0.986328 14.2383-1.20117L9.6582-13.3887C9.43359-13.9941 9.0332-14.2871 8.4082-14.2871C7.80273-14.2871 7.39258-13.9941 7.17773-13.3984L2.59766-1.19141C2.51953-0.976562 2.49023-0.830078 2.49023-0.664062C2.49023-0.175781 2.80273 0.126953 3.31055 0.126953ZM6.00586-5.53711L8.37891-12.1094L8.42773-12.1094L10.8008-5.53711Z"/>
  </g>
  <line id="" style="fill:none;stroke:#00AEEF;stroke-width:0.5;opacity:1.0;" x1="792.836" x2="792.836" y1="1919" y2="1933"/>
  <text style="stroke:none;fill:black;font-family:-apple-system,&quot;SF Pro Display&quot;,&quot;SF Pro Text&quot;,Helvetica,sans-serif;font-weight:bold;" transform="matrix(1 0 0 1 776 1953)">Margins</text>
  <text style="stroke:none;fill:black;font-family:-apple-system,&quot;SF Pro Display&quot;,&quot;SF Pro Text&quot;,Helvetica,sans-serif;" transform="matrix(1 0 0 1 776 1971)">Leading and trailing margins on the left and right side of each symbol</text>
  <text style="stroke:none;fill:black;font-family:-apple-system,&quot;SF Pro Display&quot;,&quot;SF Pro Text&quot;,Helvetica,sans-serif;" transform="matrix(1 0 0 1 776 1989)">can be adjusted by modifying the x-location of the margin guidelines.</text>
  <text style="stroke:none;fill:black;font-family:-apple-system,&quot;SF Pro Display&quot;,&quot;SF Pro Text&quot;,Helvetica,sans-serif;" transform="matrix(1 0 0 1 776 2007)">Modifications are automatically applied proportionally to all</text>
  <text style="stroke:none;fill:black;font-family:-apple-system,&quot;SF Pro Display&quot;,&quot;SF Pro Text&quot;,Helvetica,sans-serif;" transform="matrix(1 0 0 1 776 2025)">scales and weights.</text>
  <g id="" transform="matrix(1 0 0 1 1289 1933)">
   <path d="M2.8418 1.86523L4.54102 3.57422C5.40039 4.44336 6.38672 4.38477 7.31445 3.35938L17.4902-7.85156C17.7539-7.76367 18.0273-7.7832 18.3398-7.8418L19.4043-8.03711L20.0684-7.36328L20.0293-6.80664C19.9902-6.30859 20.1172-5.92773 20.6055-5.44922L21.3672-4.70703C21.8457-4.22852 22.4609-4.19922 22.9297-4.66797L25.8398-7.58789C26.3086-8.05664 26.2891-8.65234 25.8105-9.13086L25.0391-9.89258C24.5605-10.3711 24.1895-10.5273 23.7109-10.4883L23.1348-10.4395L22.4902-11.0742L22.7344-12.1973C22.8613-12.7637 22.7051-13.2031 22.1191-13.7891L19.9219-15.9766C16.582-19.2969 12.1484-19.2188 9.25781-16.3281C8.83789-15.918 8.80859-15.3418 9.04297-14.9512C9.27734-14.5898 9.73633-14.3555 10.3809-14.5215C11.8457-14.8633 13.3691-14.9219 14.7949-13.9844L14.209-12.5293C14.0137-12.0508 13.9844-11.6504 14.1113-11.2891L3.04688-0.898438C2.06055 0.0195312 1.98242 0.996094 2.8418 1.86523ZM10.752-15.957C13.1836-17.7344 16.4746-17.4316 18.7012-15.2051L21.1328-12.793C21.3672-12.5586 21.4062-12.373 21.3379-12.0312L21.0156-10.5469L22.5195-9.0625L23.5059-9.12109C23.7598-9.13086 23.8379-9.11133 24.0332-8.91602L24.6094-8.33984L22.168-5.89844L21.5918-6.47461C21.3965-6.66992 21.3672-6.74805 21.377-7.01172L21.4453-7.98828L19.9512-9.47266L18.4277-9.21875C18.1055-9.15039 17.959-9.17969 17.7148-9.41406L15.7129-11.416C15.459-11.6504 15.4297-11.8164 15.5859-12.1875L16.4648-14.2773C14.9023-15.7324 12.8711-16.3574 10.8398-15.7617C10.6836-15.7227 10.625-15.8496 10.752-15.957ZM5.27344 2.30469L4.10156 1.14258C3.63281 0.683594 3.74023 0.341797 4.14062-0.0195312L14.9512-10.1953L16.416-8.71094L6.42578 2.27539C6.07422 2.67578 5.74219 2.77344 5.27344 2.30469Z"/>
  </g>
  <text style="stroke:none;fill:black;font-family:-apple-system,&quot;SF Pro Display&quot;,&quot;SF Pro Text&quot;,Helvetica,sans-serif;font-weight:bold;" transform="matrix(1 0 0 1 1289 1953)">Exporting</text>
  <text style="stroke:none;fill:black;font-family:-apple-system,&quot;SF Pro Display&quot;,&quot;SF Pro Text&quot;,Helvetica,sans-serif;" transform="matrix(1 0 0 1 1289 1971)">Symbols should be outlined when exporting to ensure the</text>
  <text style="stroke:none;fill:black;font-family:-apple-system,&quot;SF Pro Display&quot;,&quot;SF Pro Text&quot;,Helvetica,sans-serif;" transform="matrix(1 0 0 1 1289 1989)">design is preserved when submitting to Xcode.</text>
  <text id="template-version" style="stroke:none;fill:black;font-family:-apple-system,&quot;SF Pro Display&quot;,&quot;SF Pro Text&quot;,Helvetica,sans-serif;text-anchor:end;" transform="matrix(1 0 0 1 3036 1933)">Template v.2.0</text>
  <text style="stroke:none;fill:black;font-family:-apple-system,&quot;SF Pro Display&quot;,&quot;SF Pro Text&quot;,Helvetica,sans-serif;text-anchor:end;" transform="matrix(1 0 0 1 3036 1951)">Requires Xcode 12 or greater</text>
  <text style="stroke:none;fill:black;font-family:-apple-system,&quot;SF Pro Display&quot;,&quot;SF Pro Text&quot;,Helvetica,sans-serif;text-anchor:end;" transform="matrix(1 0 0 1 3036 1969)">Generated from gearshape.fill</text>
  <text style="stroke:none;fill:black;font-family:-apple-system,&quot;SF Pro Display&quot;,&quot;SF Pro Text&quot;,Helvetica,sans-serif;text-anchor:end;" transform="matrix(1 0 0 1 3036 1987)">Typeset at 100 points</text>
  <text style="stroke:none;fill:black;font-family:-apple-system,&quot;SF Pro Display&quot;,&quot;SF Pro Text&quot;,Helvetica,sans-serif;" transform="matrix(1 0 0 1 263 726)">Small</text>
  <text style="stroke:none;fill:black;font-family:-apple-system,&quot;SF Pro Display&quot;,&quot;SF Pro Text&quot;,Helvetica,sans-serif;" transform="matrix(1 0 0 1 263 1156)">Medium</text>
  <text style="stroke:none;fill:black;font-family:-apple-system,&quot;SF Pro Display&quot;,&quot;SF Pro Text&quot;,Helvetica,sans-serif;" transform="matrix(1 0 0 1 263 1586)">Large</text>
 </g>
 <g id="Guides">
  <g id="H-reference" style="fill:#27AAE1;stroke:none;" transform="matrix(1 0 0 1 339 696)">
   <path d="M0.976562 0L3.66211 0L12.9883-24.4629L45.752-24.4629L55.127 0L57.7637 0L30.6152-70.459L28.125-70.459ZM29.3457-67.1387L29.4434-67.1387L44.873-26.709L13.8672-26.709Z"/>
  </g>
  <line id="Baseline-S" style="fill:none;stroke:#27AAE1;opacity:1;stroke-width:0.5;" x1="263" x2="3036" y1="696" y2="696"/>
  <line id="Capline-S" style="fill:none;stroke:#27AAE1;opacity:1;stroke-width:0.5;" x1="263" x2="3036" y1="625.541" y2="625.541"/>
  <g id="H-reference" style="fill:#27AAE1;stroke:none;" transform="matrix(1 0 0 1 339 1126)">
   <path d="M0.976562 0L3.66211 0L12.9883-24.4629L45.752-24.4629L55.127 0L57.7637 0L30.6152-70.459L28.125-70.459ZM29.3457-67.1387L29.4434-67.1387L44.873-26.709L13.8672-26.709Z"/>
  </g>
  <line id="Baseline-M" style="fill:none;stroke:#27AAE1;opacity:1;stroke-width:0.5;" x1="263" x2="3036" y1="1126" y2="1126"/>
  <line id="Capline-M" style="fill:none;stroke:#27AAE1;opacity:1;stroke-width:0.5;" x1="263" x2="3036" y1="1055.54" y2="1055.54"/>
  <g id="H-reference" style="fill:#27AAE1;stroke:none;" transform="matrix(1 0 0 1 339 1556)">
   <path d="M0.976562 0L3.66211 0L12.9883-24.4629L45.752-24.4629L55.127 0L57.7637 0L30.6152-70.459L28.125-70.459ZM29.3457-67.1387L29.4434-67.1387L44.873-26.709L13.8672-26.709Z"/>
  </g>
  <line id="Baseline-L" style="fill:none;stroke:#27AAE1;opacity:1;stroke-width:0.5;" x1="263" x2="3036" y1="1556" y2="1556"/>
  <line id="Capline-L" style="fill:none;stroke:#27AAE1;opacity:1;stroke-width:0.5;" x1="263" x2="3036" y1="1485.54" y2="1485.54"/>
  <line id="left-margin" style="fill:none;stroke:#00AEEF;stroke-width:0.5;opacity:1.0;" x1="1390.08" x2="1390.08" y1="1030.79" y2="1150.12"/>
  <line id="right-margin" style="fill:none;stroke:#00AEEF;stroke-width:0.5;opacity:1.0;" x1="1509.61" x2="1509.61" y1="1030.79" y2="1150.12"/>
 </g>
 <g id="Symbols">
  <g id="Black-L" transform="matrix(1 0 0 1 2851.37 1556)">
   <path d="M76.416 35.4492L87.6953 35.4492C92.9199 35.4492 97.1191 32.1777 98.1934 27.0996L101.074 15.2344C102.295 14.8438 103.467 14.3066 104.59 13.8184L114.893 20.2148C119.238 22.8516 124.609 22.3633 128.223 18.75L136.182 10.8398C139.795 7.17773 140.283 1.61133 137.451-2.63672L131.201-12.8906C131.689-13.9648 132.178-15.0391 132.52-16.1621L144.531-19.043C149.561-20.1172 152.783-24.3164 152.783-29.541L152.783-40.5762C152.783-45.752 149.561-49.9023 144.531-51.0742L132.715-53.9062C132.275-55.127 131.787-56.2988 131.299-57.2754L137.646-67.8223C140.43-72.2656 139.99-77.5879 136.182-81.2012L128.125-89.1602C124.463-92.4316 119.678-93.0664 115.332-90.7227L104.59-84.1309C103.516-84.668 102.344-85.1074 101.123-85.5957L98.1934-97.6562C97.1191-102.686 92.9199-105.957 87.6953-105.957L76.416-105.957C71.1426-105.957 66.9922-102.686 65.8691-97.6074L63.0371-85.6934C61.7676-85.3027 60.498-84.7656 59.4238-84.1797L48.7793-90.7227C44.3359-93.0664 39.6484-92.4805 35.9375-89.1113L27.8809-81.2012C24.1211-77.5879 23.6328-72.2656 26.4648-67.8223L32.7637-57.2754C32.2754-56.2988 31.7871-55.127 31.3965-53.9062L19.5801-51.0742C14.5508-49.9023 11.2793-45.752 11.2793-40.5762L11.2793-29.541C11.2793-24.3164 14.5508-20.1172 19.5801-19.043L31.543-16.1621C31.9336-15.0391 32.373-13.9648 32.8613-12.8906L26.6113-2.63672C23.7793 1.61133 24.3164 7.17773 27.9297 10.8398L35.8398 18.75C39.502 22.3633 44.873 22.8516 49.1699 20.2148L59.5215 13.8184C60.5957 14.3066 61.7676 14.8438 63.0371 15.2344L65.8691 27.0996C66.9922 32.1777 71.1426 35.4492 76.416 35.4492ZM82.0312-13.8672C70.3125-13.8672 60.6934-23.4863 60.6934-35.3027C60.6934-46.9238 70.3125-56.543 82.0312-56.543C93.7988-56.543 103.369-46.9238 103.369-35.3027C103.369-23.4863 93.7988-13.8672 82.0312-13.8672Z"/>
  </g>
  <g id="Heavy-L" transform="matrix(1 0 0 1 2555.9 1556)">
   <path d="M75.0977 34.2285L86.4746 34.2285C91.3086 34.2285 95.0684 31.25 96.0938 26.6113L99.0234 14.3066C100.488 13.8184 101.904 13.2324 103.223 12.6465L113.916 19.2383C117.92 21.6797 122.754 21.2402 126.074 17.9688L134.082 9.91211C137.402 6.5918 137.842 1.61133 135.254-2.34375L128.76-12.9883C129.346-14.2578 129.883-15.625 130.371-16.9922L142.725-19.9219C147.412-20.9473 150.293-24.6582 150.293-29.4922L150.293-40.6738C150.293-45.4102 147.412-49.1699 142.725-50.1953L130.518-53.125C129.98-54.6387 129.395-56.0547 128.857-57.2266L135.4-68.1152C137.988-72.168 137.598-76.9531 134.131-80.2734L125.977-88.3301C122.607-91.3574 118.311-91.8945 114.307-89.7461L103.223-82.9102C101.953-83.5449 100.537-84.1309 99.0723-84.668L96.0938-97.1191C95.0684-101.758 91.3086-104.736 86.4746-104.736L75.0977-104.736C70.2637-104.736 66.5527-101.758 65.5273-97.0703L62.5977-84.7656C61.084-84.2773 59.6191-83.6426 58.3008-83.0078L47.3145-89.7461C43.2617-91.8945 38.9648-91.4062 35.5957-88.2812L27.4414-80.2734C24.0234-76.9531 23.584-72.168 26.1719-68.1152L32.7148-57.2266C32.1777-56.0547 31.5918-54.6387 31.1035-53.125L18.8477-50.1953C14.209-49.1699 11.2793-45.4102 11.2793-40.6738L11.2793-29.4922C11.2793-24.6582 14.209-20.9473 18.8477-19.9219L31.25-16.9922C31.6895-15.625 32.2266-14.2578 32.8125-12.9883L26.3184-2.34375C23.7305 1.61133 24.1699 6.5918 27.4902 9.91211L35.5469 17.9688C38.8672 21.2402 43.7012 21.6797 47.6562 19.2383L58.3496 12.6465C59.668 13.2324 61.084 13.8184 62.5977 14.3066L65.5273 26.6113C66.5527 31.25 70.2637 34.2285 75.0977 34.2285ZM80.8105-13.623C68.9453-13.623 59.2285-23.3887 59.2285-35.3027C59.2285-47.0703 68.9453-56.7871 80.8105-56.7871C92.6758-56.7871 102.393-47.0703 102.393-35.3027C102.393-23.3887 92.6758-13.623 80.8105-13.623Z"/>
  </g>
  <g id="Bold-L" transform="matrix(1 0 0 1 2260.58 1556)">
   <path d="M73.6328 32.8613L85.1562 32.8613C89.502 32.8613 92.7734 30.2246 93.7012 26.0254L96.7285 13.2812C98.4863 12.6953 100.195 12.0117 101.709 11.2793L112.842 18.1641C116.406 20.4102 120.654 19.9707 123.633 17.041L131.738 8.93555C134.766 5.95703 135.156 1.5625 132.812-2.00195L126.025-13.0371C126.709-14.5996 127.393-16.2598 127.93-17.8711L140.771-20.8984C144.971-21.8262 147.51-25.0977 147.51-29.4434L147.51-40.7715C147.51-45.0195 144.971-48.291 140.771-49.2188L128.027-52.2949C127.441-54.1016 126.758-55.7617 126.123-57.1777L132.91-68.457C135.254-72.0703 134.912-76.2695 131.836-79.248L123.584-87.4023C120.557-90.1367 116.748-90.625 113.135-88.623L101.709-81.5918C100.195-82.3242 98.5352-83.0078 96.7773-83.6426L93.7012-96.5332C92.7734-100.732 89.502-103.369 85.1562-103.369L73.6328-103.369C69.3359-103.369 66.0645-100.732 65.1367-96.5332L62.1094-83.7402C60.3027-83.1055 58.5449-82.4219 57.0312-81.6406L45.6543-88.623C42.041-90.625 38.2324-90.1855 35.2051-87.4023L27.002-79.248C23.877-76.2695 23.5352-72.0703 25.8789-68.457L32.666-57.1777C32.0801-55.7617 31.3477-54.1016 30.7617-52.2949L18.0664-49.2188C13.8672-48.291 11.2793-45.0195 11.2793-40.7715L11.2793-29.4434C11.2793-25.0977 13.8672-21.8262 18.0664-20.8984L30.9082-17.8711C31.3965-16.2598 32.0801-14.5996 32.8125-13.0371L26.0254-2.00195C23.6328 1.5625 24.0723 5.95703 27.0508 8.93555L35.1562 17.041C38.1348 19.9707 42.3828 20.4102 45.9473 18.1641L57.0801 11.2793C58.6426 12.0117 60.3027 12.6953 62.1094 13.2812L65.1367 26.0254C66.0645 30.2246 69.3359 32.8613 73.6328 32.8613ZM79.4434-13.3301C67.3828-13.3301 57.5195-23.2422 57.5195-35.3027C57.5195-47.2656 67.3828-57.0801 79.4434-57.0801C91.4551-57.0801 101.27-47.2656 101.27-35.3027C101.27-23.2422 91.4551-13.3301 79.4434-13.3301Z"/>
  </g>
  <g id="Semibold-L" transform="matrix(1 0 0 1 1964.82 1556)">
   <path d="M72.6074 31.8848L84.2773 31.8848C88.2324 31.8848 91.2109 29.541 92.041 25.6348L95.166 12.5977C97.0703 11.9141 98.9746 11.1328 100.684 10.3516L112.109 17.4316C115.381 19.4824 119.238 19.1406 121.973 16.4062L130.127 8.25195C132.91 5.46875 133.301 1.51367 131.104-1.75781L124.121-13.0859C124.902-14.8438 125.635-16.6504 126.221-18.5059L139.404-21.582C143.311-22.4609 145.605-25.3906 145.605-29.3457L145.605-40.8203C145.605-44.7266 143.311-47.7051 139.404-48.584L126.367-51.709C125.684-53.7109 124.902-55.5664 124.219-57.1289L131.201-68.6523C133.35-72.0215 133.057-75.8301 130.225-78.5645L121.924-86.7676C119.141-89.3066 115.674-89.7461 112.354-87.8906L100.684-80.6641C99.0234-81.4941 97.168-82.2266 95.166-82.9102L92.041-96.1426C91.2109-100.049 88.2324-102.393 84.2773-102.393L72.6074-102.393C68.6523-102.393 65.7227-100.049 64.8438-96.1426L61.7676-83.0078C59.8145-82.3242 57.8613-81.5918 56.1035-80.7129L44.5312-87.8906C41.1621-89.7461 37.7441-89.3555 34.9121-86.7676L26.6602-78.5645C23.8281-75.8301 23.5352-72.0215 25.6836-68.6523L32.666-57.1289C31.9824-55.5664 31.2012-53.7109 30.5176-51.709L17.4805-48.584C13.5742-47.7051 11.2793-44.7266 11.2793-40.8203L11.2793-29.3457C11.2793-25.3906 13.5742-22.4609 17.4805-21.582L30.6641-18.5059C31.25-16.6504 31.9824-14.8438 32.7637-13.0859L25.7812-1.75781C23.584 1.51367 23.9746 5.46875 26.709 8.25195L34.9121 16.4062C37.6465 19.1406 41.4551 19.4824 44.7754 17.4316L56.2012 10.3516C57.9102 11.1328 59.8145 11.9141 61.7676 12.5977L64.8438 25.6348C65.7227 29.541 68.6523 31.8848 72.6074 31.8848ZM78.4668-13.1836C66.3086-13.1836 56.3965-23.1445 56.3965-35.3027C56.3965-47.3633 66.3574-57.2754 78.4668-57.2754C90.5762-57.2754 100.537-47.3633 100.537-35.3027C100.537-23.1445 90.5762-13.1836 78.4668-13.1836Z"/>
  </g>
  <g id="Medium-L" transform="matrix(1 0 0 1 1668.85 1556)">
   <path d="M71.875 31.2012L83.5938 31.2012C87.3047 31.2012 89.9902 29.0039 90.7715 25.3418L93.9453 12.0117C96.0449 11.3281 98.0469 10.498 99.9023 9.66797L111.523 16.8457C114.648 18.7988 118.115 18.457 120.703 15.918L128.906 7.71484C131.494 5.12695 131.885 1.51367 129.785-1.61133L122.656-13.1348C123.535-15.0391 124.316-16.9922 124.951-18.9453L138.379-22.1191C142.041-22.9004 144.141-25.6348 144.141-29.3457L144.141-40.8691C144.141-44.5312 142.041-47.2656 138.379-48.0469L125.049-51.2695C124.316-53.418 123.486-55.3711 122.754-57.1289L129.932-68.8477C131.934-71.9727 131.641-75.4395 129.004-78.0273L120.703-86.2793C118.066-88.6719 114.893-89.1113 111.719-87.3047L99.9023-79.9805C98.0957-80.8594 96.0938-81.6406 93.9453-82.373L90.7715-95.8496C89.9902-99.5117 87.3047-101.66 83.5938-101.66L71.875-101.66C68.1641-101.66 65.4297-99.5117 64.6484-95.8008L61.4746-82.4707C59.375-81.7383 57.3242-80.957 55.4688-80.0293L43.7012-87.3047C40.5273-89.1113 37.3535-88.7207 34.7168-86.2793L26.416-78.0273C23.7305-75.4395 23.4863-71.9727 25.4883-68.8477L32.6172-57.1289C31.8848-55.3711 31.0547-53.418 30.3711-51.2695L17.0898-48.0469C13.4277-47.2656 11.2793-44.5312 11.2793-40.8691L11.2793-29.3457C11.2793-25.6348 13.4277-22.9004 17.0898-22.1191L30.4688-18.9453C31.1035-16.9922 31.8848-15.0391 32.7637-13.1348L25.5859-1.61133C23.5352 1.51367 23.9258 5.12695 26.5137 7.71484L34.7168 15.918C37.2559 18.457 40.7715 18.7988 43.8965 16.8457L55.5176 9.66797C57.373 10.498 59.375 11.3281 61.4746 12.0117L64.6484 25.3418C65.4297 29.0039 68.1641 31.2012 71.875 31.2012ZM77.7344-13.0371C65.5273-13.0371 55.5176-23.0957 55.5176-35.3027C55.5176-47.4121 65.5273-57.4707 77.7344-57.4707C89.9414-57.4707 99.9512-47.4121 99.9512-35.3027C99.9512-23.0957 89.9414-13.0371 77.7344-13.0371Z"/>
  </g>
  <g id="Regular-L" transform="matrix(1 0 0 1 1373.09 1556)">
   <path d="M70.8496 30.2734L82.666 30.2734C86.0352 30.2734 88.4277 28.3203 89.1602 24.9512L92.3828 11.3281C94.6289 10.5469 96.875 9.66797 98.877 8.74023L110.791 16.1133C113.623 17.9199 116.748 17.627 119.043 15.2832L127.344 7.03125C129.688 4.6875 130.029 1.51367 128.125-1.36719L120.801-13.1836C121.729-15.2832 122.607-17.4316 123.291-19.5801L137.012-22.8027C140.381-23.5352 142.236-25.9277 142.236-29.2969L142.236-40.9668C142.236-44.2871 140.381-46.6309 137.012-47.4121L123.389-50.6836C122.607-53.0273 121.68-55.1758 120.898-57.0801L128.223-69.0918C130.078-71.9238 129.834-75 127.441-77.3438L119.043-85.6445C116.65-87.8418 113.818-88.2324 110.938-86.5234L98.877-79.0527C96.9238-80.0293 94.7266-80.8594 92.3828-81.6406L89.1602-95.4102C88.4277-98.7793 86.0352-100.732 82.666-100.732L70.8496-100.732C67.4805-100.732 65.0879-98.7793 64.3555-95.4102L61.1328-81.7383C58.8867-80.957 56.6406-80.127 54.5898-79.1016L42.5781-86.5234C39.6973-88.2324 36.8164-87.8906 34.4727-85.6445L26.0742-77.3438C23.6816-75 23.4375-71.9238 25.293-69.0918L32.6172-57.0801C31.8359-55.1758 30.9082-53.0273 30.127-50.6836L16.5039-47.4121C13.1836-46.6309 11.2793-44.2871 11.2793-40.9668L11.2793-29.2969C11.2793-25.9277 13.1836-23.5352 16.5039-22.8027L30.2246-19.5801C30.9082-17.4316 31.7871-15.2832 32.7148-13.1836L25.3906-1.36719C23.4863 1.51367 23.8281 4.6875 26.1719 7.03125L34.4727 15.2832C36.7676 17.627 39.8926 17.9199 42.7246 16.1133L54.6387 8.74023C56.6895 9.66797 58.8867 10.5469 61.1328 11.3281L64.3555 24.9512C65.0879 28.3203 67.4805 30.2734 70.8496 30.2734ZM76.8066-12.8418C64.4531-12.8418 54.3457-22.998 54.3457-35.3027C54.3457-47.5586 64.502-57.666 76.8066-57.666C89.1113-57.666 99.2188-47.5586 99.2188-35.3027C99.2188-22.998 89.1113-12.8418 76.8066-12.8418Z"/>
  </g>
  <g id="Light-L" transform="matrix(1 0 0 1 1076.81 1556)">
   <path d="M70.2148 29.7852L82.373 29.7852C85.8398 29.7852 88.2324 27.8809 89.0137 24.3164L92.1387 11.0352C94.1406 10.3027 96.1914 9.52148 98.0469 8.69141L109.668 15.9668C112.646 17.8711 115.723 17.5781 118.164 15.1367L126.66 6.64062C129.15 4.19922 129.443 1.07422 127.49-1.95312L120.264-13.5254C121.094-15.4297 121.826-17.3828 122.51-19.3848L135.889-22.5098C139.453-23.291 141.357-25.6348 141.357-29.1016L141.357-41.1621C141.357-44.6289 139.453-46.9727 135.889-47.7539L122.559-50.9277C121.826-53.0273 121.045-54.9805 120.312-56.7871L127.539-68.457C129.492-71.4844 129.248-74.5117 126.709-77.002L118.164-85.498C115.674-87.8418 112.744-88.2324 109.766-86.377L98.0469-79.0527C96.1914-79.8828 94.1895-80.6152 92.1387-81.3477L89.0137-94.7754C88.2324-98.3398 85.8398-100.244 82.373-100.244L70.2148-100.244C66.748-100.244 64.4043-98.3398 63.623-94.7754L60.498-81.4453C58.4473-80.6641 56.3965-79.9316 54.4922-79.1016L42.8223-86.377C39.7949-88.2324 36.8652-87.8906 34.4238-85.498L25.8301-77.002C23.3398-74.5117 23.0957-71.4844 25-68.457L32.2266-56.7871C31.4941-54.9805 30.7129-53.0273 29.9805-50.9277L16.748-47.7539C13.1836-46.9727 11.2793-44.6289 11.2793-41.1621L11.2793-29.1016C11.2793-25.6348 13.1836-23.291 16.748-22.5098L30.0781-19.3848C30.7129-17.3828 31.4941-15.4297 32.3242-13.5254L25.0977-1.95312C23.0957 1.07422 23.4375 4.19922 25.8789 6.64062L34.4238 15.1367C36.8164 17.5781 39.9414 17.8711 42.9199 15.9668L54.541 8.69141C56.4453 9.52148 58.4473 10.3027 60.498 11.0352L63.623 24.3164C64.4043 27.8809 66.748 29.7852 70.2148 29.7852ZM76.3672-12.5977C63.916-12.5977 53.6621-22.8516 53.6621-35.3027C53.6621-47.6074 63.9648-57.8613 76.3672-57.8613C88.7695-57.8613 98.9746-47.6074 98.9746-35.3027C98.9746-22.8516 88.7695-12.5977 76.3672-12.5977Z"/>
  </g>
  <g id="Thin-L" transform="matrix(1 0 0 1 780.714 1556)">
   <path d="M69.3848 29.1992L81.9824 29.1992C85.5957 29.1992 87.9395 27.2949 88.7695 23.4863L91.7969 10.5957C93.5059 9.96094 95.2637 9.32617 96.9238 8.64258L108.154 15.7715C111.328 17.8223 114.404 17.5293 116.943 14.9414L125.781 6.10352C128.418 3.56445 128.711 0.488281 126.66-2.73438L119.531-13.916C120.215-15.6738 120.85-17.334 121.484-19.0918L134.375-22.1191C138.184-22.9492 140.137-25.293 140.137-28.9062L140.137-41.4551C140.137-45.0684 138.184-47.3633 134.375-48.2422L121.484-51.2695C120.85-53.0273 120.215-54.7363 119.58-56.4453L126.66-67.6758C128.711-70.8984 128.418-73.9258 125.781-76.5137L116.943-85.3516C114.404-87.8418 111.377-88.1836 108.203-86.1328L96.9238-79.0039C95.2637-79.6875 93.5059-80.3223 91.7969-80.957L88.7695-93.8965C87.9395-97.7051 85.5957-99.6094 81.9824-99.6094L69.3848-99.6094C65.8203-99.6094 63.4766-97.7051 62.5977-93.8965L59.6191-81.0059C57.8613-80.3223 56.1523-79.7363 54.3945-79.0527L43.1152-86.1328C39.9414-88.1836 36.9141-87.8906 34.375-85.3516L25.5371-76.5137C22.9004-73.9258 22.6074-70.8984 24.6582-67.6758L31.7383-56.4453C31.1035-54.7363 30.4688-53.0273 29.834-51.2695L16.9922-48.2422C13.1836-47.3633 11.2793-45.0684 11.2793-41.4551L11.2793-28.9062C11.2793-25.293 13.1836-22.9492 16.9922-22.1191L29.834-19.0918C30.4688-17.334 31.1035-15.6738 31.7871-13.916L24.6582-2.73438C22.6074 0.488281 22.9004 3.56445 25.5371 6.10352L34.375 14.9414C36.9141 17.5293 39.9902 17.8223 43.1641 15.7715L54.3945 8.64258C56.1523 9.32617 57.8613 9.96094 59.6191 10.5957L62.5977 23.4863C63.4766 27.2949 65.8203 29.1992 69.3848 29.1992ZM75.7812-12.2559C63.1836-12.2559 52.7832-22.7051 52.7832-35.2539C52.7832-47.7051 63.2812-58.1055 75.7812-58.1055C88.2812-58.1055 98.6816-47.7051 98.6816-35.2539C98.6816-22.7051 88.2812-12.2559 75.7812-12.2559Z"/>
  </g>
  <g id="Ultralight-L" transform="matrix(1 0 0 1 484.32 1556)">
   <path d="M68.9941 28.9062L81.7871 28.9062C85.4492 28.9062 87.7441 27.002 88.6719 23.0469L91.6016 10.4004C93.1641 9.76562 94.7754 9.22852 96.3379 8.64258L107.422 15.6738C110.693 17.7734 113.721 17.4805 116.357 14.8438L125.342 5.85938C128.027 3.27148 128.369 0.195312 126.221-3.125L119.189-14.1602C119.775-15.7715 120.312-17.334 120.947-18.9453L133.643-21.9238C137.549-22.8027 139.502-25.1465 139.502-28.7598L139.502-41.6016C139.502-45.2637 137.549-47.6074 133.643-48.4863L120.947-51.416C120.312-53.0273 119.824-54.5898 119.189-56.25L126.221-67.2363C128.32-70.6055 128.027-73.6328 125.342-76.2207L116.357-85.2539C113.721-87.8418 110.645-88.1836 107.373-86.0352L96.3379-79.0039C94.7754-79.6387 93.1152-80.127 91.6016-80.7617L88.6719-93.457C87.7441-97.3633 85.4492-99.2676 81.7871-99.2676L68.9941-99.2676C65.332-99.2676 62.9883-97.3633 62.1094-93.457L59.1309-80.7617C57.5195-80.127 56.0059-79.5898 54.3457-79.0039L43.2617-86.0352C40.0391-88.1836 36.9629-87.8418 34.3262-85.2539L25.3418-76.2207C22.6562-73.6328 22.3145-70.6055 24.4629-67.2363L31.4941-56.25C30.8594-54.5898 30.3711-53.0273 29.7363-51.416L17.1387-48.4863C13.2324-47.6074 11.2793-45.2637 11.2793-41.6016L11.2793-28.7598C11.2793-25.1465 13.2324-22.8027 17.1387-21.9238L29.7363-18.9453C30.3711-17.334 30.9082-15.7715 31.4941-14.1602L24.4629-3.125C22.3145 0.195312 22.6562 3.27148 25.3418 5.85938L34.3262 14.8438C36.9629 17.4805 39.9902 17.7734 43.2617 15.6738L54.3457 8.64258C56.0059 9.22852 57.5195 9.76562 59.1309 10.4004L62.1094 23.0469C62.9883 27.002 65.332 28.9062 68.9941 28.9062ZM75.4883-12.1094C62.793-12.1094 52.2949-22.6074 52.2949-35.2539C52.2949-47.7539 62.8906-58.252 75.4883-58.252C88.0371-58.252 98.5352-47.7539 98.5352-35.2539C98.5352-22.6074 88.0371-12.1094 75.4883-12.1094Z"/>
  </g>
  <g id="Black-M" transform="matrix(1 0 0 1 2868.39 1126)">
   <path d="M60.6445 20.9473L69.3848 20.9473C74.1211 20.9473 77.8809 17.9688 78.9062 13.4277L80.957 4.98047C81.4453 4.78516 81.9336 4.54102 82.373 4.39453L89.7461 8.98438C93.6523 11.377 98.5352 10.8398 101.807 7.61719L107.959 1.46484C111.23-1.80664 111.719-6.83594 109.18-10.6934L104.736-18.0176C104.883-18.4082 105.078-18.7988 105.225-19.2871L113.77-21.2891C118.311-22.3145 121.289-26.123 121.289-30.8594L121.289-39.3555C121.289-44.043 118.311-47.8027 113.77-48.877L105.371-50.8789C105.176-51.3184 105.029-51.8066 104.785-52.1973L109.277-59.7656C111.816-63.8184 111.377-68.6523 107.959-71.875L101.66-78.125C98.3887-81.0059 94.043-81.5918 90.1367-79.4922L82.373-74.707C81.9336-74.9512 81.4453-75.1465 81.0059-75.3418L78.9062-83.9844C77.8809-88.5254 74.1211-91.4551 69.3848-91.4551L60.6445-91.4551C55.9082-91.4551 52.1484-88.5254 51.123-83.8867L49.0723-75.4395C48.5352-75.2441 48.0469-75 47.5586-74.8047L39.8926-79.4922C35.9375-81.5918 31.6406-81.0547 28.2715-78.0273L22.0703-71.875C18.6523-68.6523 18.2129-63.8184 20.7031-59.7656L25.2441-52.1973C25-51.8066 24.8535-51.3184 24.6582-50.8789L16.2598-48.877C11.7188-47.8027 8.74023-44.043 8.74023-39.3555L8.74023-30.8594C8.74023-26.123 11.7188-22.3145 16.2598-21.2891L24.8047-19.2871C24.9512-18.7988 25.1465-18.4082 25.293-18.0176L20.8496-10.6934C18.3105-6.83594 18.75-1.80664 22.0703 1.46484L28.2227 7.61719C31.4941 10.8398 36.377 11.377 40.2832 8.98438L47.6074 4.39453C48.0957 4.54102 48.5352 4.78516 49.0723 4.98047L51.123 13.4277C52.1484 17.9688 55.9082 20.9473 60.6445 20.9473ZM64.9902-18.8965C56.0547-18.8965 48.6816-26.2207 48.6816-35.2539C48.6816-44.1406 56.0547-51.5137 64.9902-51.5137C73.9746-51.5137 81.2988-44.1406 81.2988-35.2539C81.2988-26.2207 73.9746-18.8965 64.9902-18.8965Z"/>
  </g>
  <g id="Heavy-M" transform="matrix(1 0 0 1 2572.92 1126)">
   <path d="M59.375 19.7266L68.1641 19.7266C72.3633 19.7266 75.7324 17.0898 76.6113 13.0371L78.7598 4.05273C79.6387 3.75977 80.4199 3.41797 81.1523 3.07617L89.0137 7.95898C92.4805 10.1074 96.7773 9.66797 99.6582 6.78711L105.859 0.585938C108.789-2.34375 109.18-6.78711 106.934-10.2051L102.148-18.0176C102.49-18.7012 102.783-19.4336 103.076-20.2148L112.158-22.3633C116.211-23.2422 118.799-26.6113 118.799-30.8105L118.799-39.4043C118.799-43.5547 116.211-46.9238 112.158-47.8516L103.174-49.9512C102.881-50.7812 102.588-51.5625 102.246-52.2461L107.031-60.2539C109.277-63.8184 108.936-68.1152 105.908-70.9961L99.5605-77.1973C96.6309-79.834 92.8223-80.3223 89.3066-78.4668L81.1523-73.4375C80.4199-73.7793 79.6387-74.0723 78.8086-74.4141L76.6113-83.5449C75.7324-87.6465 72.3633-90.2344 68.1641-90.2344L59.375-90.2344C55.1758-90.2344 51.8555-87.6465 50.9277-83.4961L48.7793-74.5117C47.9492-74.2188 47.0703-73.877 46.3379-73.4863L38.2324-78.4668C34.668-80.3223 30.9082-79.8828 27.9297-77.1484L21.6309-70.9961C18.6035-68.1152 18.2617-63.8184 20.5078-60.2539L25.293-52.2461C24.9512-51.5625 24.6582-50.7812 24.3652-49.9512L15.4297-47.8516C11.3281-46.9238 8.74023-43.5547 8.74023-39.4043L8.74023-30.8105C8.74023-26.6113 11.3281-23.2422 15.4297-22.3633L24.4629-20.2148C24.7559-19.4336 25.0488-18.7012 25.3906-18.0176L20.6055-10.2051C18.3594-6.78711 18.75-2.34375 21.6797 0.585938L27.8809 6.78711C30.7617 9.66797 35.0586 10.1074 38.5742 7.95898L46.3867 3.07617C47.1191 3.41797 47.9492 3.75977 48.7793 4.05273L50.9277 13.0371C51.8555 17.0898 55.1758 19.7266 59.375 19.7266ZM63.7695-18.7012C54.6875-18.7012 47.2656-26.123 47.2656-35.2539C47.2656-44.2871 54.6875-51.7578 63.7695-51.7578C72.8516-51.7578 80.3223-44.2871 80.3223-35.2539C80.3223-26.123 72.8516-18.7012 63.7695-18.7012Z"/>
  </g>
  <g id="Bold-M" transform="matrix(1 0 0 1 2277.6 1126)">
   <path d="M57.959 18.3594L66.7969 18.3594C70.459 18.3594 73.291 16.1133 74.0234 12.5977L76.3672 2.97852C77.5391 2.58789 78.7109 2.09961 79.7363 1.61133L88.1348 6.78711C91.1621 8.64258 94.7754 8.30078 97.2656 5.81055L103.516-0.390625C106.055-2.92969 106.396-6.68945 104.395-9.66797L99.3164-17.9688C99.8047-19.043 100.244-20.1172 100.635-21.2402L110.303-23.5352C113.818-24.3164 116.016-27.1484 116.016-30.7617L116.016-39.4531C116.016-43.0664 113.818-45.8496 110.303-46.6797L100.732-48.9746C100.293-50.1953 99.8535-51.3184 99.4141-52.2461L104.541-60.791C106.494-63.8672 106.152-67.4805 103.564-69.9707L97.2168-76.2207C94.6777-78.5156 91.4062-78.9551 88.3789-77.2949L79.7363-71.9727C78.7109-72.4609 77.5879-72.9492 76.3672-73.3887L74.0234-83.1055C73.291-86.6211 70.459-88.8672 66.7969-88.8672L57.959-88.8672C54.2969-88.8672 51.5137-86.6211 50.7324-83.1055L48.4375-73.4375C47.2168-73.0469 45.9961-72.5586 44.9707-72.0215L36.377-77.2949C33.3008-78.9551 30.0781-78.5645 27.4902-76.2207L21.1914-69.9707C18.6035-67.4805 18.3105-63.8672 20.2637-60.791L25.3418-52.2461C24.9023-51.3184 24.4629-50.1953 24.0234-48.9746L14.4531-46.6797C10.9375-45.8496 8.74023-43.0664 8.74023-39.4531L8.74023-30.7617C8.74023-27.1484 10.9375-24.3164 14.4531-23.5352L24.1699-21.2402C24.5117-20.1172 24.9512-19.043 25.4395-17.9688L20.3613-9.66797C18.3594-6.68945 18.7012-2.92969 21.2402-0.390625L27.4902 5.81055C29.9805 8.30078 33.6426 8.64258 36.6211 6.78711L45.0195 1.61133C46.0449 2.09961 47.2168 2.58789 48.4375 2.97852L50.7324 12.5977C51.5137 16.1133 54.2969 18.3594 57.959 18.3594ZM62.4023-18.457C53.1738-18.457 45.6055-26.0254 45.6055-35.3027C45.6055-44.4336 53.1738-52.002 62.4023-52.002C71.6309-52.002 79.1504-44.4336 79.1504-35.3027C79.1504-26.0254 71.6309-18.457 62.4023-18.457Z"/>
  </g>
  <g id="Semibold-M" transform="matrix(1 0 0 1 1981.84 1126)">
   <path d="M56.9824 17.4316L65.8691 17.4316C69.1406 17.4316 71.582 15.4297 72.2656 12.3047L74.6582 2.29492C76.123 1.80664 77.5391 1.2207 78.8086 0.634766L87.5488 6.00586C90.2344 7.66602 93.4082 7.37305 95.6543 5.17578L101.904-1.07422C104.15-3.32031 104.443-6.64062 102.686-9.27734L97.3633-17.9688C97.9492-19.2871 98.4863-20.6055 98.9258-21.9727L109.033-24.3652C112.207-25.0488 114.111-27.4902 114.111-30.7617L114.111-39.502C114.111-42.6758 112.207-45.166 109.033-45.8496L99.0234-48.2422C98.5352-49.7559 97.9492-51.123 97.4609-52.2949L102.783-61.1328C104.541-63.8672 104.297-67.041 101.953-69.2871L95.6055-75.5371C93.3594-77.5879 90.4785-77.9785 87.7441-76.4648L78.8086-70.9473C77.5391-71.582 76.1719-72.1191 74.707-72.6562L72.2656-82.8125C71.582-85.9375 69.1406-87.9395 65.8691-87.9395L56.9824-87.9395C53.7109-87.9395 51.2695-85.9375 50.5859-82.7637L48.1934-72.7539C46.7285-72.2168 45.2637-71.6797 43.9941-70.9961L35.1074-76.4648C32.373-77.9785 29.4922-77.6367 27.1973-75.5371L20.8984-69.2871C18.5547-67.041 18.3105-63.8672 20.0684-61.1328L25.3906-52.2949C24.9023-51.123 24.3164-49.7559 23.8281-48.2422L13.8184-45.8496C10.6934-45.166 8.74023-42.6758 8.74023-39.502L8.74023-30.7617C8.74023-27.4902 10.6934-25.0488 13.8184-24.3652L23.9258-21.9727C24.3652-20.6055 24.9023-19.2871 25.4883-17.9688L20.166-9.27734C18.4082-6.64062 18.7012-3.32031 20.9473-1.07422L27.1973 5.17578C29.4434 7.37305 32.6172 7.66602 35.3027 6.00586L44.043 0.634766C45.3125 1.2207 46.7285 1.80664 48.1934 2.29492L50.5859 12.3047C51.2695 15.4297 53.7109 17.4316 56.9824 17.4316ZM61.4258-18.3105C52.0996-18.3105 44.4824-25.9277 44.4824-35.3027C44.4824-44.5312 52.0996-52.1973 61.4258-52.1973C70.752-52.1973 78.3691-44.5312 78.3691-35.3027C78.3691-25.9277 70.752-18.3105 61.4258-18.3105Z"/>
  </g>
  <g id="Medium-M" transform="matrix(1 0 0 1 1685.86 1126)">
   <path d="M56.25 16.6992L65.1855 16.6992C68.1152 16.6992 70.3125 14.9414 70.9473 12.0605L73.3887 1.75781C75.0488 1.17188 76.6113 0.537109 78.0762-0.146484L87.1094 5.41992C89.502 6.93359 92.3828 6.68945 94.3848 4.6875L100.684-1.61133C102.686-3.61328 102.979-6.5918 101.367-9.0332L95.8496-17.9688C96.5332-19.4336 97.168-20.9961 97.6562-22.5098L108.057-24.9512C110.938-25.5859 112.646-27.7832 112.646-30.7129L112.646-39.502C112.646-42.3828 110.938-44.6289 108.057-45.2637L97.7539-47.7539C97.2168-49.4629 96.5332-50.9766 95.9473-52.2949L101.465-61.4258C103.027-63.916 102.832-66.6992 100.732-68.75L94.3848-75.0488C92.334-76.9043 89.7461-77.2461 87.2559-75.8789L78.0762-70.2148C76.6602-70.8984 75.0977-71.5332 73.4375-72.1191L70.9473-82.5684C70.3125-85.4492 68.1152-87.207 65.1855-87.207L56.25-87.207C53.2715-87.207 51.0742-85.4492 50.4395-82.5684L47.998-72.168C46.3379-71.6309 44.7266-70.9961 43.2617-70.2637L34.1309-75.8789C31.6406-77.2461 29.1016-76.9531 27.002-75.0488L20.6543-68.75C18.5547-66.6992 18.3594-63.916 19.9219-61.4258L25.4395-52.2949C24.8535-50.9766 24.2188-49.4629 23.6328-47.7539L13.3301-45.2637C10.4492-44.6289 8.74023-42.3828 8.74023-39.502L8.74023-30.7129C8.74023-27.7832 10.4492-25.5859 13.3301-24.9512L23.7305-22.5098C24.2188-20.9961 24.8535-19.4336 25.5371-17.9688L20.0195-9.0332C18.4082-6.5918 18.7012-3.61328 20.752-1.61133L27.002 4.6875C29.0039 6.68945 31.8848 6.93359 34.3262 5.41992L43.3105-0.146484C44.7754 0.537109 46.3379 1.17188 47.998 1.75781L50.4395 12.0605C51.0742 14.9414 53.2715 16.6992 56.25 16.6992ZM60.6934-18.1641C51.3184-18.1641 43.6523-25.8789 43.6523-35.3027C43.6523-44.6289 51.3184-52.2949 60.6934-52.2949C70.1172-52.2949 77.7832-44.6289 77.7832-35.3027C77.7832-25.8789 70.1172-18.1641 60.6934-18.1641Z"/>
  </g>
  <g id="Regular-M" transform="matrix(1 0 0 1 1390.08 1126)">
   <path d="M55.2734 15.7715L64.2578 15.7715C66.7969 15.7715 68.6523 14.2578 69.1895 11.7676L71.7285 1.02539C73.6328 0.390625 75.4883-0.341797 77.0996-1.12305L86.5234 4.63867C88.623 5.95703 91.0156 5.76172 92.7734 4.00391L99.0723-2.24609C100.83-4.00391 101.074-6.54297 99.6582-8.64258L93.8965-17.9688C94.7266-19.6777 95.459-21.4355 95.9961-23.1934L106.836-25.7812C109.326-26.3184 110.791-28.1738 110.791-30.7129L110.791-39.5508C110.791-42.041 109.326-43.8965 106.836-44.4336L96.0938-47.0215C95.459-49.0234 94.6777-50.8301 93.9941-52.3438L99.7559-61.8164C101.123-63.916 100.977-66.3086 99.1699-68.0664L92.7734-74.3652C90.9668-76.0254 88.8184-76.3184 86.6699-75.0977L77.0996-69.1895C75.5371-70.0195 73.7305-70.752 71.7285-71.3867L69.1895-82.2754C68.6523-84.7656 66.7969-86.2793 64.2578-86.2793L55.2734-86.2793C52.7344-86.2793 50.8789-84.7656 50.293-82.2754L47.7539-71.4844C45.8496-70.8496 43.9941-70.1172 42.334-69.2383L32.8613-75.0977C30.7129-76.3184 28.5156-76.0742 26.709-74.3652L20.3613-68.0664C18.5547-66.3086 18.3594-63.916 19.7754-61.8164L25.4883-52.3438C24.8535-50.8301 24.0723-49.0234 23.4375-47.0215L12.6953-44.4336C10.2051-43.8965 8.74023-42.041 8.74023-39.5508L8.74023-30.7129C8.74023-28.1738 10.2051-26.3184 12.6953-25.7812L23.5352-23.1934C24.0723-21.4355 24.8047-19.6777 25.5859-17.9688L19.873-8.64258C18.4082-6.54297 18.7012-4.00391 20.459-2.24609L26.709 4.00391C28.4668 5.76172 30.9082 5.95703 33.0078 4.63867L42.3828-1.12305C44.043-0.341797 45.8496 0.390625 47.7539 1.02539L50.293 11.7676C50.8789 14.2578 52.7344 15.7715 55.2734 15.7715ZM59.7656-18.0176C50.293-18.0176 42.5293-25.8301 42.5293-35.3027C42.5293-44.7266 50.293-52.4902 59.7656-52.4902C69.2383-52.4902 77.002-44.7266 77.002-35.3027C77.002-25.8301 69.2383-18.0176 59.7656-18.0176Z"/>
  </g>
  <g id="Light-M" transform="matrix(1 0 0 1 1093.78 1126)">
   <path d="M54.6875 15.3809L63.9648 15.3809C66.6016 15.3809 68.457 13.8672 69.043 11.2305L71.5332 0.732422C73.1934 0.146484 74.8535-0.488281 76.3672-1.17188L85.498 4.49219C87.7441 5.95703 90.1367 5.71289 91.9434 3.90625L98.4863-2.58789C100.342-4.44336 100.586-6.93359 99.0723-9.17969L93.457-18.2617C94.1406-19.8242 94.7754-21.4355 95.3125-23.0469L105.811-25.4883C108.496-26.0742 109.961-27.9297 109.961-30.5664L109.961-39.7461C109.961-42.334 108.496-44.1895 105.811-44.7754L95.3613-47.2656C94.7754-49.0234 94.0918-50.6348 93.5059-52.0508L99.1699-61.2305C100.586-63.5254 100.439-65.8691 98.5352-67.7734L91.9434-74.2676C90.0879-76.0254 87.8418-76.3184 85.5957-74.9512L76.3672-69.1895C74.8535-69.873 73.2422-70.5078 71.5332-71.0938L69.043-81.6895C68.457-84.3262 66.6016-85.8398 63.9648-85.8398L54.6875-85.8398C52.0508-85.8398 50.2441-84.3262 49.6582-81.6895L47.168-71.1914C45.459-70.6055 43.7988-69.9707 42.2852-69.2383L33.0566-74.9512C30.8105-76.3184 28.5645-76.0742 26.709-74.2676L20.1172-67.7734C18.2129-65.8691 18.0664-63.5254 19.5312-61.2305L25.1465-52.0508C24.5605-50.6348 23.877-49.0234 23.291-47.2656L12.8906-44.7754C10.2051-44.1895 8.74023-42.334 8.74023-39.7461L8.74023-30.5664C8.74023-27.9297 10.2051-26.0742 12.8906-25.4883L23.3887-23.0469C23.877-21.4355 24.5117-19.8242 25.1953-18.2617L19.5801-9.17969C18.0664-6.93359 18.3105-4.44336 20.2148-2.58789L26.709 3.90625C28.5156 5.71289 30.9082 5.95703 33.1543 4.49219L42.2852-1.17188C43.8477-0.488281 45.459 0.146484 47.168 0.732422L49.6582 11.2305C50.2441 13.8672 52.0508 15.3809 54.6875 15.3809ZM59.375-17.7734C49.8047-17.7734 41.8945-25.6836 41.8945-35.3027C41.8945-44.7754 49.8047-52.6855 59.375-52.6855C68.9453-52.6855 76.8066-44.7754 76.8066-35.3027C76.8066-25.6836 68.9453-17.7734 59.375-17.7734Z"/>
  </g>
  <g id="Thin-M" transform="matrix(1 0 0 1 797.633 1126)">
   <path d="M53.9551 14.8438L63.623 14.8438C66.3574 14.8438 68.2129 13.3301 68.8477 10.4492L71.1914 0.390625C72.6074-0.146484 74.0234-0.634766 75.3418-1.2207L84.1797 4.3457C86.5723 5.9082 88.9648 5.66406 90.8691 3.71094L97.6562-3.07617C99.6582-5.0293 99.9023-7.42188 98.3398-9.86328L92.8223-18.6523C93.3594-20.0195 93.8477-21.3867 94.3848-22.8027L104.492-25.1465C107.373-25.7812 108.838-27.6367 108.838-30.3711L108.838-39.9902C108.838-42.7246 107.373-44.5801 104.492-45.2148L94.3848-47.5586C93.8477-49.0234 93.3594-50.3906 92.8223-51.7578L98.3398-60.5469C99.9512-62.9883 99.707-65.3809 97.7051-67.334L90.8691-74.1211C88.916-76.0254 86.6211-76.2695 84.1797-74.7559L75.3418-69.1895C74.0234-69.7266 72.6074-70.2148 71.1914-70.752L68.8477-80.8594C68.2129-83.7891 66.3574-85.2539 63.623-85.2539L53.9551-85.2539C51.2207-85.2539 49.4141-83.7891 48.7305-80.8594L46.3867-70.8008C44.9707-70.2637 43.5547-69.7754 42.1875-69.1895L33.3496-74.7559C30.9082-76.2695 28.6133-76.0254 26.6602-74.1211L19.8242-67.334C17.8223-65.3809 17.627-62.9883 19.1895-60.5469L24.707-51.7578C24.1699-50.3906 23.6816-49.0234 23.1445-47.5586L13.1348-45.2148C10.2051-44.5801 8.74023-42.7246 8.74023-39.9902L8.74023-30.3711C8.74023-27.6367 10.2051-25.7812 13.1348-25.1465L23.1445-22.8027C23.6816-21.3867 24.1699-20.0195 24.7559-18.6523L19.1895-9.86328C17.627-7.42188 17.8711-5.0293 19.873-3.07617L26.6602 3.71094C28.6133 5.66406 30.957 5.9082 33.3984 4.3457L42.1875-1.2207C43.5547-0.634766 44.9707-0.146484 46.3867 0.390625L48.7305 10.4492C49.4141 13.3301 51.2207 14.8438 53.9551 14.8438ZM58.8379-17.5293C49.1211-17.5293 41.1133-25.5371 41.1133-35.2539C41.1133-44.873 49.1699-52.9297 58.8379-52.9297C68.5059-52.9297 76.5625-44.873 76.5625-35.2539C76.5625-25.5371 68.5059-17.5293 58.8379-17.5293Z"/>
  </g>
  <g id="Ultralight-M" transform="matrix(1 0 0 1 501.191 1126)">
   <path d="M53.5645 14.5996L63.4277 14.5996C66.2598 14.5996 68.0664 13.0859 68.75 10.0586L71.0449 0.195312C72.2656-0.292969 73.584-0.732422 74.8047-1.2207L83.4961 4.24805C85.9863 5.85938 88.3301 5.61523 90.332 3.61328L97.2656-3.32031C99.3164-5.32227 99.5605-7.66602 97.9492-10.2539L92.4805-18.7988C92.9688-20.1172 93.4082-21.3379 93.8965-22.6562L103.809-24.9512C106.787-25.6348 108.301-27.4414 108.301-30.2734L108.301-40.1367C108.301-42.9199 106.787-44.7266 103.809-45.459L93.8965-47.7539C93.4082-49.0234 92.9688-50.293 92.4805-51.5625L97.9492-60.1562C99.5605-62.7441 99.3164-65.0879 97.2656-67.0898L90.332-74.0234C88.3301-76.0254 85.9863-76.2695 83.4473-74.6582L74.8047-69.1406C73.584-69.6777 72.2656-70.0684 71.0449-70.6055L68.75-80.4688C68.0664-83.4961 66.2598-84.9609 63.4277-84.9609L53.5645-84.9609C50.7812-84.9609 48.9746-83.4961 48.291-80.4688L45.9961-70.6055C44.6777-70.0684 43.457-69.6777 42.1387-69.1406L33.4961-74.6582C31.0059-76.2695 28.6133-76.0254 26.6113-74.0234L19.6777-67.0898C17.627-65.0879 17.3828-62.7441 18.9941-60.1562L24.5117-51.5625C23.9746-50.293 23.584-49.0234 23.0469-47.7539L13.2324-45.459C10.2539-44.7266 8.74023-42.9199 8.74023-40.1367L8.74023-30.2734C8.74023-27.4414 10.2539-25.6348 13.2324-24.9512L23.0469-22.6562C23.584-21.3379 23.9746-20.1172 24.5117-18.7988L18.9941-10.2539C17.3828-7.66602 17.627-5.32227 19.6777-3.32031L26.6113 3.61328C28.6133 5.61523 31.0059 5.85938 33.4961 4.24805L42.1387-1.2207C43.457-0.732422 44.6777-0.292969 45.9961 0.195312L48.291 10.0586C48.9746 13.0859 50.7812 14.5996 53.5645 14.5996ZM58.5938-17.3828C48.7793-17.3828 40.6738-25.4883 40.6738-35.2539C40.6738-44.9219 48.8281-53.0273 58.5938-53.0273C68.3105-53.0273 76.416-44.9219 76.416-35.2539C76.416-25.4883 68.3105-17.3828 58.5938-17.3828Z"/>
  </g>
  <g id="Black-S" transform="matrix(1 0 0 1 2882.57 696)">
   <path d="M47.4121 8.69141L54.248 8.69141C57.9102 8.69141 60.8398 6.39648 61.6211 2.88086L63.2324-3.80859C63.6719-3.95508 64.0625-4.15039 64.4531-4.29688L70.2637-0.683594C73.291 1.17188 77.0508 0.78125 79.5898-1.70898L84.4238-6.54297C86.9629-9.08203 87.3047-12.9883 85.3516-15.9668L81.8359-21.7285C81.9824-22.0703 82.1289-22.4121 82.2754-22.8027L89.0137-24.4141C92.5293-25.1953 94.8242-28.125 94.8242-31.7871L94.8242-38.4766C94.8242-42.0898 92.5293-45.0195 89.0137-45.8496L82.373-47.4121C82.2266-47.8027 82.0801-48.1934 81.8848-48.5352L85.4492-54.4922C87.4023-57.6172 87.0605-61.377 84.4238-63.8672L79.4922-68.75C76.9531-70.9961 73.584-71.4355 70.5566-69.8242L64.4531-66.0645C64.0625-66.2598 63.6719-66.4062 63.2812-66.6016L61.6211-73.3887C60.8398-76.9043 57.9102-79.1992 54.248-79.1992L47.4121-79.1992C43.75-79.1992 40.8203-76.9043 40.0391-73.3398L38.4277-66.6504C37.9883-66.5039 37.5488-66.3086 37.1582-66.1133L31.1035-69.8242C28.0273-71.4355 24.707-71.0449 22.1191-68.7012L17.2363-63.8672C14.5996-61.377 14.2578-57.6172 16.2109-54.4922L19.7754-48.5352C19.5801-48.1934 19.4336-47.8027 19.2871-47.4121L12.6465-45.8496C9.13086-45.0195 6.83594-42.0898 6.83594-38.4766L6.83594-31.7871C6.83594-28.125 9.13086-25.1953 12.6465-24.4141L19.3848-22.8027C19.5312-22.4121 19.6777-22.0703 19.8242-21.7285L16.3086-15.9668C14.3555-12.9883 14.6973-9.08203 17.2363-6.54297L22.0703-1.70898C24.6094 0.78125 28.3691 1.17188 31.3965-0.683594L37.207-4.29688C37.5977-4.15039 37.9883-3.95508 38.4277-3.80859L40.0391 2.88086C40.8203 6.39648 43.75 8.69141 47.4121 8.69141ZM50.8301-22.4121C43.7988-22.4121 38.0371-28.1738 38.0371-35.2539C38.0371-42.2363 43.7988-47.998 50.8301-47.998C57.8613-47.998 63.623-42.2363 63.623-35.2539C63.623-28.1738 57.8613-22.4121 50.8301-22.4121Z"/>
  </g>
  <g id="Heavy-S" transform="matrix(1 0 0 1 2586.76 696)">
   <path d="M46.4844 7.8125L53.3691 7.8125C56.5918 7.8125 59.1797 5.76172 59.8633 2.63672L61.6211-4.49219C62.3047-4.73633 62.9883-5.0293 63.5742-5.27344L69.7754-1.46484C72.4609 0.195312 75.7812-0.146484 78.0273-2.34375L82.8613-7.17773C85.1562-9.42383 85.4492-12.8906 83.6914-15.5273L79.9316-21.6797C80.2246-22.2656 80.4688-22.9004 80.6641-23.5352L87.8906-25.2441C91.0156-25.9277 93.0176-28.5156 93.0176-31.7871L93.0176-38.4766C93.0176-41.6992 91.0156-44.2871 87.8906-45.0195L80.7617-46.6797C80.5664-47.4121 80.2734-48.0469 79.9805-48.584L83.7891-54.9316C85.5469-57.666 85.2539-60.9863 82.9102-63.2324L77.9785-68.0664C75.7324-70.1172 72.7539-70.5078 70.0684-69.043L63.5742-65.0879C62.9883-65.3809 62.3047-65.625 61.6211-65.918L59.8633-73.1445C59.1797-76.2695 56.5918-78.3203 53.3691-78.3203L46.4844-78.3203C43.2617-78.3203 40.6738-76.2695 39.9902-73.0957L38.2324-65.9668C37.5488-65.7227 36.8164-65.4297 36.2305-65.1367L29.7852-69.043C27.0508-70.5078 24.1211-70.166 21.8262-68.0664L16.9434-63.2324C14.5996-60.9863 14.3066-57.666 16.0645-54.9316L19.873-48.584C19.5801-48.0469 19.3359-47.4121 19.0918-46.6797L11.9629-45.0195C8.83789-44.2871 6.83594-41.6992 6.83594-38.4766L6.83594-31.7871C6.83594-28.5156 8.83789-25.9277 11.9629-25.2441L19.1895-23.5352C19.3848-22.9004 19.6289-22.2656 19.9219-21.6797L16.1621-15.5273C14.4043-12.8906 14.6973-9.42383 16.9922-7.17773L21.8262-2.34375C24.0723-0.146484 27.3926 0.195312 30.0781-1.46484L36.2793-5.27344C36.8652-5.0293 37.5488-4.73633 38.2324-4.49219L39.9902 2.63672C40.6738 5.76172 43.2617 7.8125 46.4844 7.8125ZM49.9512-22.2656C42.8223-22.2656 37.0117-28.125 37.0117-35.2539C37.0117-42.334 42.8223-48.1445 49.9512-48.1445C57.0312-48.1445 62.8906-42.334 62.8906-35.2539C62.8906-28.125 57.0312-22.2656 49.9512-22.2656Z"/>
  </g>
  <g id="Bold-S" transform="matrix(1 0 0 1 2291.05 696)">
   <path d="M45.5078 6.78711L52.3438 6.78711C55.1758 6.78711 57.373 5.07812 57.959 2.39258L59.7656-5.22461C60.791-5.56641 61.7676-6.00586 62.5977-6.39648L69.2383-2.29492C71.582-0.878906 74.4141-1.17188 76.3184-3.07617L81.1523-7.91016C83.1055-9.81445 83.3496-12.793 81.8359-15.0391L77.832-21.6309C78.2227-22.5098 78.6133-23.4375 78.9062-24.3652L86.5723-26.1719C89.3066-26.7578 91.0156-28.9551 91.0156-31.7871L91.0156-38.4766C91.0156-41.2598 89.3066-43.457 86.5723-44.0918L79.0039-45.8984C78.6621-46.9238 78.2715-47.8516 77.8809-48.6328L81.9336-55.4199C83.4473-57.7637 83.2031-60.5469 81.2012-62.5L76.2695-67.334C74.3164-69.0918 71.8262-69.4336 69.4824-68.1641L62.5977-63.9648C61.7676-64.4043 60.8398-64.7949 59.8145-65.1367L57.959-72.9004C57.373-75.5859 55.1758-77.2949 52.3438-77.2949L45.5078-77.2949C42.6758-77.2949 40.4785-75.5859 39.8926-72.8516L38.0859-65.2344C37.0605-64.8926 36.0352-64.4531 35.1562-64.0137L28.3691-68.1641C26.0254-69.4336 23.5352-69.1406 21.5332-67.334L16.6504-62.5C14.6484-60.5469 14.4043-57.7637 15.918-55.4199L19.9219-48.6328C19.5801-47.8516 19.1895-46.9238 18.8477-45.8984L11.2305-44.0918C8.54492-43.457 6.83594-41.2598 6.83594-38.4766L6.83594-31.7871C6.83594-28.9551 8.54492-26.7578 11.2305-26.1719L18.9453-24.3652C19.2383-23.4375 19.6289-22.5098 20.0195-21.6309L16.0156-15.0391C14.4531-12.793 14.7461-9.81445 16.6992-7.91016L21.4844-3.07617C23.4375-1.17188 26.2695-0.878906 28.5645-2.29492L35.2051-6.39648C36.084-6.00586 37.0605-5.56641 38.0859-5.22461L39.8926 2.39258C40.4785 5.07812 42.6758 6.78711 45.5078 6.78711ZM48.9258-22.1191C41.6992-22.1191 35.8398-28.0273 35.8398-35.2539C35.8398-42.4316 41.6992-48.3398 48.9258-48.3398C56.1523-48.3398 62.0117-42.4316 62.0117-35.2539C62.0117-28.0273 56.1523-22.1191 48.9258-22.1191Z"/>
  </g>
  <g id="Semibold-S" transform="matrix(1 0 0 1 1995.05 696)">
   <path d="M44.7754 6.10352L51.6602 6.10352C54.1504 6.10352 56.1035 4.58984 56.5918 2.19727L58.4961-5.76172C59.7168-6.20117 60.8887-6.64062 61.9629-7.17773L68.8965-2.88086C70.9473-1.61133 73.4375-1.85547 75.1465-3.56445L79.9805-8.39844C81.6895-10.1074 81.9336-12.6953 80.5664-14.7461L76.3672-21.6309C76.8555-22.7051 77.3438-23.8281 77.6855-24.9023L85.6934-26.8066C88.1348-27.3438 89.5996-29.248 89.5996-31.7871L89.5996-38.4766C89.5996-40.9668 88.1348-42.8711 85.6934-43.4082L77.7832-45.3613C77.3438-46.582 76.8555-47.7539 76.416-48.6816L80.6641-55.7129C81.9824-57.8125 81.7871-60.2539 80.0293-62.0117L75.0977-66.8457C73.3398-68.4082 71.1426-68.7012 69.0918-67.5781L61.9629-63.1836C60.9375-63.7207 59.8145-64.209 58.5449-64.5996L56.5918-72.7051C56.1035-75.0977 54.1504-76.6113 51.6602-76.6113L44.7754-76.6113C42.2852-76.6113 40.332-75.0977 39.8438-72.6562L37.9395-64.6973C36.7188-64.2578 35.498-63.8184 34.4727-63.2324L27.3438-67.5781C25.293-68.7012 23.0957-68.457 21.3379-66.8457L16.4062-62.0117C14.6484-60.2539 14.4531-57.8125 15.7715-55.7129L20.0195-48.6816C19.5801-47.7539 19.0918-46.582 18.6523-45.3613L10.7422-43.4082C8.34961-42.8711 6.83594-40.9668 6.83594-38.4766L6.83594-31.7871C6.83594-29.248 8.34961-27.3438 10.7422-26.8066L18.75-24.9023C19.0918-23.8281 19.5801-22.7051 20.0684-21.6309L15.8691-14.7461C14.502-12.6953 14.7461-10.1074 16.4551-8.39844L21.2891-3.56445C22.998-1.85547 25.4883-1.61133 27.5391-2.88086L34.5215-7.17773C35.5469-6.64062 36.7188-6.20117 37.9395-5.76172L39.8438 2.19727C40.332 4.58984 42.2852 6.10352 44.7754 6.10352ZM48.2422-22.0215C40.9668-22.0215 35.0098-27.9785 35.0098-35.3027C35.0098-42.5293 40.9668-48.4375 48.2422-48.4375C55.5176-48.4375 61.4258-42.5293 61.4258-35.3027C61.4258-27.9785 55.5176-22.0215 48.2422-22.0215Z"/>
  </g>
  <g id="Medium-S" transform="matrix(1 0 0 1 1698.85 696)">
   <path d="M44.2383 5.61523L51.123 5.61523C53.418 5.61523 55.127 4.24805 55.6152 2.05078L57.5684-6.15234C58.9355-6.64062 60.2539-7.17773 61.4258-7.76367L68.6035-3.32031C70.459-2.19727 72.7051-2.39258 74.2188-3.90625L79.0527-8.74023C80.6152-10.3027 80.8594-12.6465 79.5898-14.4531L75.2441-21.582C75.8301-22.8027 76.3672-24.0723 76.7578-25.3418L85.0586-27.2949C87.207-27.7832 88.5742-29.4922 88.5742-31.7871L88.5742-38.5254C88.5742-40.7227 87.207-42.4316 85.0586-42.9199L76.8555-44.9219C76.3672-46.3379 75.7812-47.6562 75.3418-48.6816L79.6875-56.0059C80.9082-57.8613 80.7617-60.0586 79.1504-61.6211L74.2188-66.4551C72.6562-67.8711 70.6543-68.1641 68.7988-67.1387L61.4258-62.5977C60.3027-63.1836 58.9844-63.7207 57.5684-64.209L55.6152-72.5586C55.127-74.707 53.418-76.123 51.123-76.123L44.2383-76.123C41.9922-76.123 40.2832-74.707 39.7949-72.5586L37.8418-64.3066C36.4746-63.8184 35.1074-63.2812 33.8867-62.6465L26.6113-67.1387C24.707-68.1641 22.7539-67.9199 21.1426-66.4551L16.2598-61.6211C14.6484-60.0586 14.502-57.8613 15.7227-56.0059L20.0684-48.6816C19.5801-47.6562 18.9941-46.3379 18.5547-44.9219L10.3516-42.9199C8.1543-42.4316 6.83594-40.7227 6.83594-38.5254L6.83594-31.7871C6.83594-29.4922 8.1543-27.7832 10.3516-27.2949L18.6523-25.3418C19.043-24.0723 19.5801-22.8027 20.1172-21.582L15.7715-14.4531C14.5508-12.6465 14.7949-10.3027 16.3086-8.74023L21.1426-3.90625C22.7051-2.39258 24.9512-2.19727 26.7578-3.32031L33.9355-7.76367C35.1074-7.17773 36.4746-6.64062 37.8418-6.15234L39.7949 2.05078C40.2832 4.24805 41.9922 5.61523 44.2383 5.61523ZM47.7051-21.9238C40.3809-21.9238 34.375-27.9785 34.375-35.3027C34.375-42.5781 40.3809-48.5352 47.7051-48.5352C55.0293-48.5352 60.9863-42.5781 60.9863-35.3027C60.9863-27.9785 55.0293-21.9238 47.7051-21.9238Z"/>
  </g>
  <g id="Regular-S" transform="matrix(1 0 0 1 1402.85 696)">
   <path d="M43.5547 4.93164L50.4395 4.93164C52.3926 4.93164 53.8574 3.75977 54.2969 1.85547L56.2988-6.68945C57.9102-7.22656 59.4238-7.8125 60.791-8.49609L68.2617-3.90625C69.8242-2.92969 71.7285-3.07617 73.0469-4.39453L77.8809-9.22852C79.1992-10.5469 79.3945-12.5488 78.3203-14.1602L73.7793-21.582C74.4629-22.9492 75.0977-24.4629 75.5371-25.8789L84.1797-27.9297C86.0352-28.3203 87.1582-29.7852 87.1582-31.7871L87.1582-38.5254C87.1582-40.4297 86.0352-41.8945 84.1797-42.2852L75.6348-44.3848C75.0977-46.0449 74.4141-47.5098 73.877-48.7305L78.418-56.2988C79.4434-57.9102 79.3457-59.7656 77.9785-61.1328L73.0469-65.9668C71.6797-67.1875 70.0195-67.4316 68.4082-66.5527L60.791-61.8652C59.4727-62.5488 57.959-63.1348 56.2988-63.6719L54.2969-72.3633C53.8574-74.2676 52.3926-75.4395 50.4395-75.4395L43.5547-75.4395C41.6016-75.4395 40.1367-74.2676 39.7461-72.3633L37.6953-63.7695C36.1328-63.2324 34.5215-62.6465 33.2031-61.9141L25.6348-66.5527C23.9746-67.4316 22.3145-67.2363 20.9473-65.9668L16.0156-61.1328C14.6484-59.7656 14.5508-57.9102 15.5762-56.2988L20.1172-48.7305C19.5801-47.5098 18.8965-46.0449 18.4082-44.3848L9.86328-42.2852C7.95898-41.8945 6.83594-40.4297 6.83594-38.5254L6.83594-31.7871C6.83594-29.7852 7.95898-28.3203 9.86328-27.9297L18.5059-25.8789C18.8965-24.4629 19.5312-22.9492 20.2148-21.582L15.6738-14.1602C14.5996-12.5488 14.7949-10.5469 16.1133-9.22852L20.9473-4.39453C22.2656-3.07617 24.1699-2.92969 25.7812-3.90625L33.252-8.49609C34.5703-7.8125 36.1328-7.22656 37.6953-6.68945L39.7461 1.85547C40.1367 3.75977 41.6016 4.93164 43.5547 4.93164ZM47.0215-21.8262C39.5996-21.8262 33.5938-27.9297 33.5938-35.3027C33.5938-42.627 39.5996-48.6816 47.0215-48.6816C54.3945-48.6816 60.4004-42.627 60.4004-35.3027C60.4004-27.9297 54.3945-21.8262 47.0215-21.8262Z"/>
  </g>
  <g id="Light-S" transform="matrix(1 0 0 1 1106.5 696)">
   <path d="M43.0664 4.58984L50.1953 4.58984C52.2461 4.58984 53.7109 3.41797 54.1504 1.36719L56.1035-6.93359C57.4707-7.42188 58.8867-7.95898 60.1074-8.54492L67.334-4.05273C69.043-2.97852 70.9473-3.125 72.3633-4.54102L77.3438-9.52148C78.7598-10.9375 78.9551-12.8906 77.832-14.5996L73.3887-21.8262C73.9746-23.0957 74.5117-24.4141 74.9023-25.7324L83.252-27.6855C85.3027-28.125 86.4258-29.5898 86.4258-31.6406L86.4258-38.6719C86.4258-40.6738 85.3027-42.1387 83.252-42.5781L74.9512-44.5801C74.5117-46.0449 73.9258-47.3633 73.4375-48.5352L77.8809-55.8105C79.0039-57.5684 78.8574-59.4238 77.4414-60.8398L72.3633-65.8691C70.8984-67.1875 69.1895-67.4316 67.4316-66.4062L60.1074-61.8652C58.8867-62.4512 57.5684-62.9395 56.1035-63.4277L54.1504-71.8262C53.7109-73.877 52.2461-75.0488 50.1953-75.0488L43.0664-75.0488C41.0156-75.0488 39.5996-73.877 39.1602-71.8262L37.1582-63.5254C35.791-63.0371 34.375-62.5 33.1543-61.8652L25.8301-66.4062C24.0723-67.4316 22.3633-67.2363 20.8984-65.8691L15.8203-60.8398C14.4043-59.4238 14.2578-57.5684 15.3809-55.8105L19.8242-48.5352C19.3359-47.3633 18.75-46.0449 18.3105-44.5801L10.0098-42.5781C7.95898-42.1387 6.83594-40.6738 6.83594-38.6719L6.83594-31.6406C6.83594-29.5898 7.95898-28.125 10.0098-27.6855L18.3594-25.7324C18.75-24.4141 19.2871-23.0957 19.873-21.8262L15.4297-14.5996C14.3066-12.8906 14.502-10.9375 15.918-9.52148L20.8984-4.54102C22.3145-3.125 24.2188-2.97852 25.9277-4.05273L33.1543-8.54492C34.4238-7.95898 35.791-7.42188 37.1582-6.93359L39.1602 1.36719C39.5996 3.41797 41.0156 4.58984 43.0664 4.58984ZM46.6797-21.6309C39.1602-21.6309 33.0566-27.832 33.0566-35.3027C33.0566-42.6758 39.209-48.8281 46.6797-48.8281C54.1016-48.8281 60.2539-42.6758 60.2539-35.3027C60.2539-27.832 54.1016-21.6309 46.6797-21.6309Z"/>
  </g>
  <g id="Thin-S" transform="matrix(1 0 0 1 810.255 696)">
   <path d="M42.4316 4.10156L49.9023 4.10156C52.0508 4.10156 53.4668 2.92969 53.9551 0.732422L55.8594-7.27539C56.9824-7.66602 58.1543-8.10547 59.2285-8.54492L66.1621-4.19922C68.0176-2.97852 69.9219-3.17383 71.3867-4.6875L76.6602-9.96094C78.2227-11.4258 78.418-13.3301 77.1973-15.2344L72.8027-22.168C73.291-23.291 73.6816-24.4141 74.1211-25.5371L82.0801-27.3926C84.3262-27.8809 85.498-29.3457 85.498-31.4453L85.498-38.916C85.498-41.0156 84.3262-42.4805 82.0801-42.9688L74.1211-44.8242C73.6816-46.0449 73.291-47.168 72.8516-48.2422L77.1973-55.1758C78.418-57.0801 78.2227-58.9355 76.709-60.4492L71.3867-65.7227C69.873-67.1875 68.0664-67.3828 66.2109-66.2109L59.2285-61.8164C58.1543-62.3047 56.9824-62.6953 55.8594-63.1348L53.9551-71.1426C53.4668-73.3887 52.0508-74.5605 49.9023-74.5605L42.4316-74.5605C40.2832-74.5605 38.8672-73.3887 38.3301-71.1426L36.4746-63.1836C35.3027-62.7441 34.1797-62.3047 33.0566-61.8652L26.0742-66.2109C24.1699-67.3828 22.3633-67.1875 20.8984-65.7227L15.5762-60.4492C14.0625-58.9355 13.8672-57.0801 15.0879-55.1758L19.4336-48.2422C18.9941-47.168 18.6035-46.0449 18.1641-44.8242L10.2051-42.9688C8.00781-42.4805 6.83594-41.0156 6.83594-38.916L6.83594-31.4453C6.83594-29.3457 8.00781-27.8809 10.2051-27.3926L18.1641-25.5371C18.6035-24.4141 18.9941-23.291 19.4824-22.168L15.0879-15.2344C13.8672-13.3301 14.0625-11.4258 15.625-9.96094L20.8984-4.6875C22.3633-3.17383 24.2188-2.97852 26.0742-4.19922L33.0566-8.54492C34.1797-8.10547 35.3027-7.66602 36.4746-7.27539L38.3301 0.732422C38.8672 2.92969 40.2832 4.10156 42.4316 4.10156ZM46.1914-21.3867C38.623-21.3867 32.3242-27.6855 32.3242-35.2539C32.3242-42.7734 38.623-49.0234 46.1914-49.0234C53.7598-49.0234 60.0098-42.7734 60.0098-35.2539C60.0098-27.6855 53.7598-21.3867 46.1914-21.3867Z"/>
  </g>
  <g id="Ultralight-S" transform="matrix(1 0 0 1 513.813 696)">
   <path d="M42.0898 3.85742L49.7559 3.85742C51.9531 3.85742 53.3691 2.68555 53.8574 0.390625L55.7129-7.42188C56.6895-7.8125 57.7637-8.20312 58.7402-8.59375L65.5762-4.29688C67.4805-3.02734 69.3848-3.22266 70.8984-4.78516L76.3184-10.1562C77.8809-11.7188 78.0762-13.5742 76.8555-15.5762L72.5098-22.3145C72.9492-23.3887 73.291-24.3652 73.6816-25.4395L81.4941-27.2461C83.7891-27.7832 84.9609-29.1992 84.9609-31.3477L84.9609-39.0137C84.9609-41.2109 83.7891-42.627 81.4941-43.1641L73.6816-44.9707C73.291-46.0449 72.9492-47.0703 72.5098-48.0957L76.8555-54.8828C78.0762-56.8359 77.9297-58.6914 76.3184-60.2539L70.8984-65.625C69.3359-67.1875 67.5293-67.3828 65.5762-66.1133L58.7402-61.8164C57.7637-62.207 56.6895-62.5977 55.7129-62.9883L53.8574-70.8008C53.3691-73.0957 51.9531-74.2676 49.7559-74.2676L42.0898-74.2676C39.8926-74.2676 38.4766-73.0957 37.9395-70.8008L36.1328-62.9883C35.0586-62.5977 34.082-62.207 33.0078-61.8164L26.1719-66.1133C24.2676-67.3828 22.4121-67.1875 20.8496-65.625L15.4785-60.2539C13.8672-58.6914 13.6719-56.8359 14.9414-54.8828L19.2383-48.0957C18.8477-47.0703 18.457-46.0449 18.0664-44.9707L10.3027-43.1641C8.00781-42.627 6.83594-41.2109 6.83594-39.0137L6.83594-31.3477C6.83594-29.1992 8.00781-27.7832 10.3027-27.2461L18.0664-25.4395C18.457-24.3652 18.8477-23.3887 19.2383-22.3145L14.9414-15.5762C13.6719-13.5742 13.8672-11.7188 15.4785-10.1562L20.8496-4.78516C22.4121-3.22266 24.2676-3.02734 26.2207-4.29688L33.0078-8.59375C34.082-8.20312 35.0586-7.8125 36.1328-7.42188L37.9395 0.390625C38.4766 2.68555 39.8926 3.85742 42.0898 3.85742ZM45.9473-21.2891C38.2812-21.2891 31.9824-27.5879 31.9824-35.2539C31.9824-42.8223 38.3301-49.1211 45.9473-49.1211C53.5645-49.1211 59.9121-42.8223 59.9121-35.2539C59.9121-27.5879 53.5645-21.2891 45.9473-21.2891Z"/>
  </g>
 </g>
</svg>
